<?xml version="1.0" encoding="UTF-8"?>
<svg id="Layer_1" xmlns="http://www.w3.org/2000/svg" version="1.1" viewBox="0 0 309.4 186.8">
  <!-- Generator: Adobe Illustrator 30.1.0, SVG Export Plug-In . SVG Version: 2.1.1 Build 136)  -->
  <defs>
    <style>
      .st0 {
        fill: #f81b92;
      }

      .st1 {
        fill: #0079b3;
      }
    </style>
  </defs>
  <path class="st0" d="M307.5,69.6c1.2-.8,2.6.8,1.5,1.9-35.2,35.2-72.6,70.9-114,98.6-101.8,62.7-155.5-69.6-76.2-96.4,1.4-.5,2.5,1.2,1.5,2.3-39.4,41.7-6.5,105.2,47.6,85.8,21.3-7.7,121-79.7,139.6-92.1Z"/>
  <path class="st1" d="M2.1,145.4c-1.1,1-2.7-.4-1.8-1.6C28.6,102.9,59.1,61.2,95,26.6c89.1-79.7,165.4,41,92.1,81.4-1.3.7-2.7-.8-1.8-2,31.4-48-12.2-104.7-62-76C103.6,41.4,18.3,129.9,2.1,145.4Z"/>
</svg>